<?xml version="1.0" encoding="UTF-8"?>
<!-- Maskable variant — full-bleed plate, artwork kept inside the 80% safe zone so Android may crop to circle/squircle. -->
<svg xmlns="http://www.w3.org/2000/svg" viewBox="0 0 512 512" role="img" aria-label="香港童軍通告圖書館">
  <defs>
    <linearGradient id="plate" x1="0" y1="0" x2="1" y2="1">
      <stop offset="0" stop-color="#4f8ef7"/>
      <stop offset="0.55" stop-color="#1d4ed8"/>
      <stop offset="1" stop-color="#0b1f5c"/>
    </linearGradient>
    <radialGradient id="glow" cx="0.3" cy="0.15" r="0.9">
      <stop offset="0" stop-color="#ffffff" stop-opacity="0.25"/>
      <stop offset="1" stop-color="#ffffff" stop-opacity="0"/>
    </radialGradient>
    <radialGradient id="halo" cx="0.5" cy="0.5" r="0.5">
      <stop offset="0" stop-color="#ffffff" stop-opacity="0.28"/>
      <stop offset="1" stop-color="#ffffff" stop-opacity="0"/>
    </radialGradient>
    <linearGradient id="page" x1="0" y1="0" x2="0" y2="1">
      <stop offset="0" stop-color="#ffffff"/>
      <stop offset="1" stop-color="#dbe7fb"/>
    </linearGradient>
    <filter id="shadow" x="-25%" y="-25%" width="150%" height="160%">
      <feDropShadow dx="0" dy="10" stdDeviation="12" flood-color="#020b2a" flood-opacity="0.5"/>
    </filter>
  </defs>
  <rect width="512" height="512" fill="url(#plate)"/>
  <rect width="512" height="512" fill="url(#glow)"/>
  <g transform="translate(256 256) scale(0.76) translate(-256 -256)">
  <circle cx="256" cy="160" r="150" fill="url(#halo)"/>
  <g filter="url(#shadow)">
    <path d="M256 312 C194.4 285.6 96 288 66 294 L66 416 C96 410 194.4 412 256 442 C317.6 412 416 410 446 416 L446 294 C416 288 317.6 285.6 256 312Z" fill="#0a1a4d"/>
    <path d="M256 298 C194.4 271.6 110 274 80 280 L80 402 C110 396 194.4 398 256 426Z" fill="url(#page)"/>
    <path d="M256 298 C317.6 271.6 402 274 432 280 L432 402 C402 396 317.6 398 256 426Z" fill="url(#page)"/>
    <path d="M256 298 L256 426" stroke="#94a3b8" stroke-opacity="0.55" stroke-width="3"/>
  </g>
  <g stroke="#94a3b8" stroke-opacity="0.6" stroke-width="10" stroke-linecap="round">
      <path d="M114 322 L230 315"/>
      <path d="M282 315 L398 322"/>
      <path d="M114 352 L230 345"/>
      <path d="M282 345 L398 352"/>
      <path d="M114 382 L200 375"/>
      <path d="M282 375 L368 382"/>
  </g>
  <g transform="translate(150 70) scale(1.06)" filter="url(#shadow)">
    <g fill="#ffffff">
      <path d="M100 6C108 34 130 66 130 100C130 116 120 124 115 136L85 136C80 124 70 116 70 100C70 66 92 34 100 6Z"/>
      <path d="M117 136C118 100 132 78 156 70C182 62 200 84 194 108C190 122 182 132 174 136C182 122 186 104 172 96C154 86 141 104 139 136Z"/>
      <path d="M117 136C118 100 132 78 156 70C182 62 200 84 194 108C190 122 182 132 174 136C182 122 186 104 172 96C154 86 141 104 139 136Z" transform="matrix(-1 0 0 1 200 0)"/>
      <path d="M60 128h80a6 6 0 0 1 6 6v8a6 6 0 0 1-6 6H60a6 6 0 0 1-6-6v-8a6 6 0 0 1 6-6Z"/>
      <path d="M100 198C105 182 114 168 111 144L89 144C86 168 95 182 100 198Z"/>
      <path d="M108 144C110 164 124 178 138 172C148 168 150 156 142 152C142 162 132 164 126 158C121 153 119 148 119 144Z"/>
      <path d="M108 144C110 164 124 178 138 172C148 168 150 156 142 152C142 162 132 164 126 158C121 153 119 148 119 144Z" transform="matrix(-1 0 0 1 200 0)"/>
    </g>
  </g>
  </g>
</svg>
